<svg xmlns="http://www.w3.org/2000/svg" id="Layer_2" data-name="Layer 2" viewBox="0 0 3367.96 681.37"><g id="Layer_1-2" data-name="Layer 1"><g><rect x="657.57" y=".44" width="177.47" height="680.94" rx="34.88" ry="34.88"/><rect x="1734.74" y=".44" width="177.47" height="680.94" rx="34.88" ry="34.88"/><path d="M2599.39,300.22v341.78c0,21.75-17.63,39.38-39.38,39.38h-99.21c-21.75,0-39.38-17.63-39.38-39.38v-341.78c0-67.39-54.63-122.03-122.03-122.03h0c-67.39,0-122.03,54.63-122.03,122.03v341.78c0,21.75-17.63,39.38-39.38,39.38h-99.21c-21.75,0-39.38-17.63-39.38-39.38v-341.78c0-165.68,134.31-300,300-300h0c165.68,0,300,134.31,300,300Z"/><path d="M1644.79,51.12l-242.12,584.07c-11.59,27.96-38.88,46.19-69.15,46.19h-97.25c-30.27,0-57.56-18.23-69.15-46.19L924.99,51.12c-9.73-23.48,7.52-49.32,32.94-49.32h114.9c14.42,0,27.42,8.68,32.94,22l172.3,415.62c2.52,6.07,11.12,6.07,13.63,0L1464.01,23.8c5.52-13.32,18.52-22,32.94-22h114.9c25.42,0,42.68,25.84,32.94,49.32Z"/><path d="M3027.29,0c-188.16,0-340.7,152.54-340.7,340.7s152.54,340.67,340.7,340.67,340.67-152.52,340.67-340.67S3215.44,0,3027.29,0ZM3027.29,503.95c-90.17,0-163.25-73.1-163.25-163.25s73.08-163.25,163.25-163.25,163.25,73.08,163.25,163.25-73.1,163.25-163.25,163.25Z"/><path d="M528.8,177.47C470.99,71.72,358.72,0,229.7,0H50.25C22.5,0,0,22.5,0,50.26v580.86c0,27.75,22.5,50.25,50.25,50.25h179.45c129.03,0,241.29-71.71,299.11-177.46,26.51-48.46,41.57-104.08,41.57-163.21s-15.07-114.76-41.58-163.23ZM233.39,503.91c-1.23.03-2.46.04-3.69.04s-2.46-.01-3.68-.04h-26.11c-12.39,0-22.44-10.05-22.44-22.44V199.91c0-12.39,10.05-22.44,22.44-22.44h27.16c.87-.01,1.75-.02,2.63-.02s1.76.01,2.64.02c88.93,1.41,160.61,73.94,160.61,163.23s-71.11,161.25-159.56,163.21Z"/></g></g></svg>