<svg xmlns="http://www.w3.org/2000/svg" id="Layer_2" viewBox="0 0 3453.04 681.37" width="150" height="auto" class="!fill-black" role="img" aria-label="Divino Logo"><g id="Layer_1-2"><path fill="#000" d="M615.23,1.72h-88.67c-22.22,0-40.23,18.01-40.23,40.21v54.36c-17.44-11.01-36.05-20.38-55.58-27.88-35.25-13.48-73.49-20.88-113.48-20.88C142.05,47.54,0,189.57,0,364.78c0,147.83,101.12,272.07,237.97,307.28.25.07.5.12.75.2,25.24,5.95,51.57,9.12,78.63,9.12s52.64-3.09,77.55-8.89c.2-.05.4-.1.62-.15,32.29-7.57,62.81-19.76,90.81-35.8,11.43-6.53,22.45-13.73,32.98-21.5,86.5-63.8,136.15-166.04,136.15-273.52V41.93c0-22.2-18.01-40.21-40.23-40.21ZM317.27,523.3c-62.01,0-115.72-35.6-141.75-87.49-10.74-21.38-16.77-45.49-16.77-71.03,0-87.54,70.98-158.52,158.52-158.52s158.52,70.98,158.52,158.52c0,25.88-6.2,50.32-17.21,71.92-26.21,51.4-79.65,86.6-141.31,86.6Z"></path><rect fill="#000" x="742.65" y=".44" width="177.47" height="680.94" rx="34.88" ry="34.88"></rect><path fill="#000" d="M1729.87,51.12l-242.12,584.07c-11.59,27.96-38.88,46.19-69.15,46.19h-97.25c-30.27,0-57.56-18.23-69.15-46.19L1010.07,51.12c-9.73-23.48,7.52-49.32,32.94-49.32h114.9c14.42,0,27.42,8.68,32.94,22l172.3,415.62c2.52,6.07,11.12,6.07,13.63,0L1549.09,23.8c5.52-13.32,18.52-22,32.94-22h114.9c25.42,0,42.68,25.84,32.94,49.32Z"></path><rect fill="#000" x="1819.82" y=".44" width="177.47" height="680.94" rx="34.88" ry="34.88"></rect><path fill="#000" d="M2684.47,292.32v351.35c0,20.82-16.88,37.7-37.7,37.7h-95.06c-20.82,0-37.7-16.88-37.7-37.7v-343.47c0-71.55-58-129.55-129.55-129.55h0c-71.55,0-129.55,58-129.55,129.55v343.47c0,20.82-16.88,37.7-37.7,37.7h-95.03c-20.82,0-37.7-16.88-37.7-37.7v-351.35C2084.48,131,2215.26.22,2376.58.22h15.79c161.32,0,292.1,130.78,292.1,292.1Z"></path><path fill="#000" d="M3112.37,0c-188.16,0-340.7,152.54-340.7,340.7s152.54,340.67,340.7,340.67,340.67-152.52,340.67-340.67S3300.52,0,3112.37,0ZM3112.37,516.2c-96.94,0-175.5-78.59-175.5-175.5s78.56-175.5,175.5-175.5,175.5,78.56,175.5,175.5-78.59,175.5-175.5,175.5Z"></path></g></svg>